<svg width="100" height="100" viewBox="0 0 100 100" fill="none" xmlns="http://www.w3.org/2000/svg">
<path d="M100 76.4805H0V76.5305H100V76.4805Z" fill="#E6E6E6"/>
<path d="M24.9638 79.5059H18.3398V79.5559H24.9638V79.5059Z" fill="#E6E6E6"/>
<path d="M16.2443 79.5059H12.4062V79.5559H16.2443V79.5059Z" fill="#E6E6E6"/>
<path d="M42.1105 80.2422H38.2725V80.2922H42.1105V80.2422Z" fill="#E6E6E6"/>
<path d="M62.1224 81.3584H53.4844V81.4084H62.1224V81.3584Z" fill="#E6E6E6"/>
<path d="M51.7045 81.3584H50.4385V81.4084H51.7045V81.3584Z" fill="#E6E6E6"/>
<path d="M90.6696 80.2422H71.9336V80.2922H90.6696V80.2422Z" fill="#E6E6E6"/>
<path d="M47.3996 67.56H8.7816C8.47907 67.5595 8.18911 67.4389 7.97538 67.2248C7.76164 67.0107 7.6416 66.7205 7.6416 66.418V12.132C7.64424 11.8312 7.76544 11.5436 7.97889 11.3316C8.19234 11.1197 8.4808 11.0005 8.7816 11H47.3996C47.7025 11 47.993 11.1203 48.2071 11.3345C48.4213 11.5487 48.5416 11.8391 48.5416 12.142V66.418C48.5416 66.7209 48.4213 67.0114 48.2071 67.2255C47.993 67.4397 47.7025 67.56 47.3996 67.56ZM8.7816 11.04C8.49233 11.0405 8.21509 11.1558 8.01073 11.3605C7.80638 11.5653 7.6916 11.8427 7.6916 12.132V66.418C7.6916 66.7073 7.80638 66.9847 8.01073 67.1895C8.21509 67.3942 8.49233 67.5095 8.7816 67.51H47.3996C47.6891 67.5095 47.9665 67.3943 48.1712 67.1896C48.3759 66.9849 48.4911 66.7075 48.4916 66.418V12.132C48.4911 11.8425 48.3759 11.5651 48.1712 11.3604C47.9665 11.1557 47.6891 11.0405 47.3996 11.04H8.7816Z" fill="#E6E6E6"/>
<path d="M90.6624 67.56H52.0424C51.7397 67.5595 51.4495 67.439 51.2355 67.2249C51.0214 67.0109 50.9009 66.7207 50.9004 66.418V12.132C50.9035 11.831 51.0252 11.5434 51.239 11.3315C51.4527 11.1196 51.7414 11.0005 52.0424 11H90.6624C90.9628 11.001 91.2508 11.1204 91.4638 11.3323C91.6768 11.5442 91.7978 11.8316 91.8004 12.132V66.418C91.8004 66.7202 91.6806 67.0101 91.4673 67.2241C91.254 67.4382 90.9646 67.5589 90.6624 67.56ZM52.0424 11.04C51.7529 11.0405 51.4755 11.1557 51.2708 11.3604C51.0661 11.5651 50.9509 11.8425 50.9504 12.132V66.418C50.9509 66.7075 51.0661 66.9849 51.2708 67.1896C51.4755 67.3943 51.7529 67.5095 52.0424 67.51H90.6624C90.9518 67.5095 91.2293 67.3943 91.434 67.1896C91.6386 66.9849 91.7539 66.7075 91.7544 66.418V12.132C91.7539 11.8425 91.6386 11.5651 91.434 11.3604C91.2293 11.1557 90.9518 11.0405 90.6624 11.04H52.0424Z" fill="#E6E6E6"/>
<path d="M53.48 59.3965H49.082V76.8425H53.48V59.3965Z" fill="#E0E0E0"/>
<path d="M52.6436 76.8418H53.4796V74.4658H51.7676L52.6436 76.8418Z" fill="#FAFAFA"/>
<path d="M34.2076 59.3965H29.8096V76.8425H34.2076V59.3965Z" fill="#E0E0E0"/>
<path d="M53.4805 59.3965H33.4805V75.3845H53.4805V59.3965Z" fill="#FAFAFA"/>
<path d="M52.7539 60.1815V64.4115H34.1999V60.1815H52.7479M52.8259 60.1035H34.1279V64.4875H52.8319V60.1035H52.8259Z" fill="#E0E0E0"/>
<path d="M34.3145 76.8418H33.4805V74.4658H35.1905L34.3145 76.8418Z" fill="#FAFAFA"/>
<path d="M43.0381 62.2955C43.0381 62.3829 43.064 62.4684 43.1126 62.5411C43.1611 62.6138 43.2302 62.6704 43.3109 62.7039C43.3917 62.7373 43.4806 62.7461 43.5663 62.729C43.6521 62.712 43.7308 62.6699 43.7926 62.6081C43.8544 62.5462 43.8965 62.4675 43.9136 62.3818C43.9306 62.296 43.9219 62.2071 43.8884 62.1264C43.855 62.0456 43.7983 61.9766 43.7256 61.928C43.653 61.8794 43.5675 61.8535 43.4801 61.8535C43.3629 61.8535 43.2504 61.9001 43.1675 61.983C43.0847 62.0659 43.0381 62.1783 43.0381 62.2955Z" fill="#E6E6E6"/>
<path d="M52.7539 65.2742V69.5042H34.1999V65.2742H52.7479M52.8259 65.1982H34.1279V69.5822H52.8319V65.2002L52.8259 65.1982Z" fill="#E0E0E0"/>
<path d="M43.0381 67.4C43.0381 67.4874 43.064 67.5729 43.1126 67.6456C43.1611 67.7183 43.2302 67.7749 43.3109 67.8084C43.3917 67.8418 43.4806 67.8506 43.5663 67.8335C43.6521 67.8165 43.7308 67.7744 43.7926 67.7125C43.8544 67.6507 43.8965 67.572 43.9136 67.4862C43.9306 67.4005 43.9219 67.3116 43.8884 67.2309C43.855 67.1501 43.7983 67.0811 43.7256 67.0325C43.653 66.9839 43.5675 66.958 43.4801 66.958C43.3629 66.958 43.2504 67.0046 43.1675 67.0875C43.0847 67.1704 43.0381 67.2828 43.0381 67.4Z" fill="#E6E6E6"/>
<path d="M52.7539 70.368V74.6H34.1999V70.368H52.7479M52.8259 70.29H34.1279V74.676H52.8319V70.29H52.8259Z" fill="#E0E0E0"/>
<path d="M43.0381 72.484C43.0385 72.5714 43.0647 72.6566 43.1136 72.7291C43.1624 72.8015 43.2315 72.8578 43.3123 72.891C43.3931 72.9241 43.4819 72.9326 43.5675 72.9153C43.6531 72.898 43.7317 72.8558 43.7933 72.7939C43.8549 72.732 43.8968 72.6532 43.9137 72.5675C43.9306 72.4819 43.9218 72.3931 43.8882 72.3124C43.8547 72.2318 43.7981 72.1629 43.7254 72.1144C43.6528 72.0659 43.5674 72.04 43.4801 72.04C43.4219 72.04 43.3642 72.0515 43.3105 72.0739C43.2567 72.0962 43.2079 72.1289 43.1668 72.1702C43.1258 72.2115 43.0933 72.2604 43.0712 72.3143C43.0491 72.3681 43.0378 72.4258 43.0381 72.484Z" fill="#E6E6E6"/>
<path d="M31.522 49.2637H27.124V76.8437H31.522V49.2637Z" fill="#E0E0E0"/>
<path d="M30.6855 76.8418H31.5215V74.4658H29.8115L30.6855 76.8418Z" fill="#FAFAFA"/>
<path d="M15.0865 49.2637H10.6885V76.8437H15.0865V49.2637Z" fill="#E0E0E0"/>
<path d="M31.5224 49.2637H14.3564V75.3857H31.5224V49.2637Z" fill="#FAFAFA"/>
<path d="M30.782 50.0002V55.9142H15.096V50.0002H30.782ZM30.874 49.9102H15V56.0002H30.87V49.9122L30.874 49.9102Z" fill="#E0E0E0"/>
<path d="M30.7817 56.6359V72.3219H23.3097V56.6359H30.7817ZM30.8737 56.5439H23.2197V72.4139H30.8737V56.5439Z" fill="#E0E0E0"/>
<path d="M22.568 56.6359V72.3219H15.096V56.6359H22.568ZM22.658 56.5439H15V72.4139H22.654V56.5439H22.658Z" fill="#E0E0E0"/>
<path d="M15.1924 76.8418H14.3564V74.4658H16.0684L15.1924 76.8418Z" fill="#FAFAFA"/>
<path d="M22.4961 52.9596C22.4957 53.0475 22.5214 53.1335 22.57 53.2068C22.6185 53.2801 22.6877 53.3373 22.7688 53.3712C22.8499 53.4051 22.9392 53.4142 23.0255 53.3973C23.1117 53.3804 23.191 53.3383 23.2533 53.2762C23.3156 53.2142 23.3581 53.1351 23.3754 53.0489C23.3927 52.9628 23.384 52.8734 23.3505 52.7921C23.3169 52.7109 23.26 52.6414 23.187 52.5925C23.1139 52.5437 23.028 52.5176 22.9401 52.5176C22.8227 52.5176 22.7101 52.5641 22.6268 52.6469C22.5436 52.7298 22.4966 52.8422 22.4961 52.9596Z" fill="#E6E6E6"/>
<path d="M24.0801 64.1061C24.0801 64.194 24.1062 64.2799 24.1551 64.353C24.2039 64.4261 24.2734 64.483 24.3546 64.5165C24.4359 64.55 24.5253 64.5587 24.6114 64.5414C24.6976 64.5241 24.7767 64.4817 24.8387 64.4194C24.9008 64.3571 24.9429 64.2778 24.9598 64.1915C24.9767 64.1052 24.9676 64.0159 24.9337 63.9348C24.8998 63.8537 24.8426 63.7845 24.7693 63.736C24.696 63.6874 24.61 63.6617 24.5221 63.6621C24.4639 63.6621 24.4062 63.6736 24.3525 63.696C24.2987 63.7183 24.2499 63.751 24.2088 63.7923C24.1678 63.8335 24.1352 63.8825 24.1132 63.9364C24.0911 63.9902 24.0798 64.0479 24.0801 64.1061Z" fill="#E6E6E6"/>
<path d="M20.9141 64.1061C20.9145 64.1934 20.9407 64.2787 20.9895 64.3511C21.0383 64.4235 21.1075 64.4799 21.1883 64.513C21.2691 64.5462 21.3579 64.5547 21.4435 64.5374C21.5291 64.5201 21.6077 64.4778 21.6693 64.4159C21.7309 64.354 21.7728 64.2753 21.7897 64.1896C21.8066 64.1039 21.7977 64.0152 21.7642 63.9345C21.7307 63.8539 21.6741 63.7849 21.6014 63.7365C21.5288 63.688 21.4434 63.6621 21.3561 63.6621C21.2979 63.6621 21.2402 63.6736 21.1865 63.6959C21.1327 63.7183 21.0839 63.751 21.0428 63.7923C21.0017 63.8335 20.9692 63.8825 20.9471 63.9364C20.925 63.9902 20.9138 64.0479 20.9141 64.1061Z" fill="#E6E6E6"/>
<path d="M20.4139 41.5742H18.5599C18.7307 42.4736 18.8383 43.3838 18.8819 44.2982C18.8819 45.2982 17.4699 49.2642 19.4819 49.2642C21.4939 49.2642 20.0819 45.3082 20.0819 44.2982C20.1287 43.3836 20.2397 42.4733 20.4139 41.5742Z" fill="#E0E0E0"/>
<path d="M13.3604 45.6299V46.8299C13.3625 47.4732 13.6189 48.0895 14.0738 48.5444C14.5287 48.9993 15.1451 49.2558 15.7884 49.2579H16.9884C17.6316 49.2558 18.248 48.9993 18.7029 48.5444C19.1578 48.0895 19.4142 47.4732 19.4164 46.8299V45.6299H13.3604Z" fill="#F5F5F5"/>
<path d="M39.1338 56.8516C39.1338 58.2516 40.6998 59.3956 42.6138 59.3956H44.3418C46.2558 59.3956 47.8218 58.2516 47.8218 56.8516H39.1338Z" fill="#E0E0E0"/>
<path d="M84.9217 54.7997C83.8737 55.6557 82.4257 57.2217 81.1017 59.4257C80.2177 60.8937 79.6857 62.4257 79.4517 64.4617C79.4517 62.1617 79.4657 59.6917 79.4737 57.3597C79.7397 56.7597 80.3477 55.3757 80.7837 54.2837C82.2377 50.6377 82.7837 49.7397 84.0897 46.5957C85.8357 42.3957 87.6237 37.4237 87.1117 37.8217C86.0677 38.6317 82.0677 46.1217 81.6357 47.1937C80.4582 50.0546 79.7303 53.0803 79.4777 56.1637C79.4777 53.9637 79.4937 51.9637 79.5017 50.4117C79.5297 45.3497 79.6157 43.7157 79.6577 43.2117C79.8197 42.9557 80.0097 42.6577 80.1217 42.4977C81.0617 41.1377 81.4237 39.9817 82.3077 37.9537C83.5637 35.0837 84.6437 29.9857 84.3277 30.2417C83.0117 31.3137 81.9757 33.6137 80.6117 36.5477C79.2477 39.4817 79.6377 41.1677 79.3677 43.6717C79.3117 44.1637 79.2677 46.0197 79.2357 48.5897C78.8837 45.8497 78.2197 44.0457 77.0097 42.4057C75.5217 40.3877 74.0817 39.0257 73.0257 38.3137C71.9697 37.6017 74.8497 42.5577 76.2257 44.7137C77.4517 46.6417 78.5817 48.3397 79.2257 50.0137C79.1917 53.4997 79.1757 57.9117 79.1757 62.0137C78.8597 60.1457 78.3437 58.1317 77.6557 56.5737C76.8277 54.7017 75.5557 51.8297 74.5417 50.8557C74.2997 50.6217 75.6017 56.2077 76.4377 57.6917C77.2737 59.1757 77.8877 60.5777 78.4137 61.4197C78.5357 61.6197 78.9437 62.3737 79.1757 62.8097C79.1757 67.8237 79.2037 72.2477 79.2477 73.7537H79.4637C79.4497 73.3657 79.4457 70.8137 79.4517 67.4377C79.9737 65.6057 81.1657 63.5137 82.1497 61.6057C83.2217 59.5397 85.9697 53.9497 84.9217 54.7997Z" fill="#E0E0E0"/>
<path d="M82.4881 76.8422H76.2201L75.7461 70.6982H82.9621L82.4881 76.8422Z" fill="#F0F0F0"/>
<path d="M83.4279 71.4138H75.2779L75.0459 69.3398H83.6619L83.4279 71.4138Z" fill="#F5F5F5"/>
<path d="M24.8516 15.0996H13.6416V27.4096H24.8516V15.0996Z" fill="#E0E0E0"/>
<path d="M26.0663 15.0996H14.4863V27.4096H26.0663V15.0996Z" fill="#F5F5F5"/>
<path d="M25.0957 26.4403V16.0703H15.4557V26.4403H25.0957Z" fill="white"/>
<path d="M22.7578 23.924V18.582H17.7918V23.924H22.7578Z" fill="#F5F5F5"/>
<path d="M82.0097 16.5342H71.5957V27.9702H82.0097V16.5342Z" fill="#E0E0E0"/>
<path d="M83.1378 16.5342H72.3818V27.9702H83.1378V16.5342Z" fill="#F5F5F5"/>
<path d="M82.2383 27.0675V17.4355H73.2843V27.0675H82.2383Z" fill="white"/>
<path d="M77.7598 25.046C79.3029 25.046 80.5538 23.7951 80.5538 22.252C80.5538 20.7089 79.3029 19.458 77.7598 19.458C76.2167 19.458 74.9658 20.7089 74.9658 22.252C74.9658 23.7951 76.2167 25.046 77.7598 25.046Z" fill="#F5F5F5"/>
<path d="M36.4976 22.4404H28.1816V31.5724H36.4976V22.4404Z" fill="#E0E0E0"/>
<path d="M37.3976 22.4404H28.8076V31.5724H37.3976V22.4404Z" fill="#F5F5F5"/>
<path d="M36.6777 30.8522V23.1602H29.5277V30.8522H36.6777Z" fill="white"/>
<path d="M33.1044 25.0596L31.1484 28.4476H35.0604L33.1044 25.0596Z" fill="#F5F5F5"/>
<path d="M49.9997 85.5124C71.4162 85.5124 88.7777 84.4987 88.7777 83.2484C88.7777 81.998 71.4162 80.9844 49.9997 80.9844C28.5832 80.9844 11.2217 81.998 11.2217 83.2484C11.2217 84.4987 28.5832 85.5124 49.9997 85.5124Z" fill="#F5F5F5"/>
<path d="M69.8492 32.6857L67.8652 31.8857C67.8652 31.8857 65.2472 36.6597 64.4972 36.9017C63.4772 37.2297 61.3652 38.1417 60.1132 38.3017C59.9432 38.5017 59.6652 39.1237 59.6912 39.3497C61.3732 39.9117 65.0692 39.1657 65.8612 38.5777C67.6632 37.2437 69.8492 32.6857 69.8492 32.6857Z" fill="#E58A7B"/>
<path d="M70.4592 31.6001C70.8292 32.9661 68.8252 35.7141 68.8252 35.7141L66.1992 34.2421C66.1992 34.2421 66.6912 33.1121 67.2912 31.9621C68.2532 30.1041 70.0372 30.0421 70.4592 31.6001Z" fill="#407BFF"/>
<path opacity="0.2" d="M70.4592 31.6001C70.8292 32.9661 68.8252 35.7141 68.8252 35.7141L66.1992 34.2421C66.1992 34.2421 66.6912 33.1121 67.2912 31.9621C68.2532 30.1041 70.0372 30.0421 70.4592 31.6001Z" fill="black"/>
<path opacity="0.2" d="M67.2412 34.8303L68.2752 35.4103L68.4572 32.2363C67.8552 32.6983 67.4312 34.0903 67.2412 34.8303Z" fill="black"/>
<path d="M68.7311 30.572C68.7311 30.572 66.6871 35.12 67.8791 43.588H75.9331C76.0611 42.352 75.6371 36.32 77.1711 30.496C76.2876 30.3234 75.3937 30.2091 74.4951 30.154C73.3554 30.088 72.2128 30.088 71.0731 30.154C70.2831 30.2343 69.5002 30.374 68.7311 30.572Z" fill="#407BFF"/>
<path opacity="0.2" d="M68.7311 30.572C68.7311 30.572 66.6871 35.12 67.8791 43.588H75.9331C76.0611 42.352 75.6371 36.32 77.1711 30.496C76.2876 30.3234 75.3937 30.2091 74.4951 30.154C73.3554 30.088 72.2128 30.088 71.0731 30.154C70.2831 30.2343 69.5002 30.374 68.7311 30.572Z" fill="black"/>
<g style="mix-blend-mode:multiply">
<path d="M66.8633 83.428C66.8513 83.644 69.9053 83.818 73.6833 83.818C77.4613 83.818 80.5373 83.644 80.5493 83.428C80.5613 83.212 77.5093 83.04 73.7293 83.04C69.9493 83.04 66.8773 83.214 66.8633 83.428Z" fill="#E8ECF1"/>
</g>
<path d="M72.24 77.7527L70.8115 78.3057L72.042 81.4844L73.4705 80.9314L72.24 77.7527Z" fill="#E58A7B"/>
<path d="M78.6098 81.8903H77.1038L76.5518 78.4043H78.0578L78.6098 81.8903Z" fill="#E58A7B"/>
<path d="M76.9995 81.7158H78.6915C78.7209 81.7159 78.7492 81.7264 78.7716 81.7455C78.7939 81.7645 78.8088 81.7909 78.8135 81.8198L79.0315 83.1578C79.0361 83.1914 79.0334 83.2256 79.0236 83.258C79.0139 83.2904 78.9972 83.3204 78.9748 83.3458C78.9524 83.3712 78.9248 83.3915 78.8939 83.4053C78.8629 83.4191 78.8294 83.4261 78.7955 83.4258C78.2055 83.4158 77.9215 83.3798 77.1775 83.3798C76.7195 83.3798 75.7775 83.4278 75.1415 83.4278C74.5055 83.4278 74.4635 82.8038 74.7255 82.7458C75.9015 82.4918 76.3575 82.1458 76.7495 81.8098C76.8186 81.7491 76.9075 81.7157 76.9995 81.7158Z" fill="#263238"/>
<path d="M71.9995 81.2004L73.5995 80.7324C73.6281 80.7244 73.6585 80.7263 73.6858 80.738C73.7131 80.7496 73.7356 80.7702 73.7495 80.7964L74.3495 81.9964C74.3635 82.0269 74.3706 82.06 74.3704 82.0935C74.3702 82.1269 74.3627 82.16 74.3484 82.1903C74.3341 82.2206 74.3134 82.2473 74.2877 82.2688C74.262 82.2902 74.2319 82.3058 74.1995 82.3144C73.6175 82.4744 73.2275 82.5724 72.4995 82.7844C71.9975 82.9304 71.4855 83.1684 70.9895 83.3264C70.6455 83.4364 69.8375 83.4404 69.4195 83.4404C68.8015 83.4404 68.6635 82.7884 68.9295 82.7584C69.5995 82.6844 69.6895 82.7184 70.0595 82.5324C70.665 82.2678 71.2136 81.8889 71.6755 81.4164C71.7626 81.3171 71.8744 81.2426 71.9995 81.2004Z" fill="#263238"/>
<path d="M60.3653 38.2946L58.7093 37.6006L58.0273 39.4366C58.7061 39.54 59.3966 39.54 60.0753 39.4366L60.3653 38.2946Z" fill="#E58A7B"/>
<path d="M57.4776 37.5518L57.4336 38.7718L58.0276 39.4318L58.7096 37.5958L57.4776 37.5518Z" fill="#E58A7B"/>
<path d="M72.4359 78.023L71.0029 78.5762L71.6375 80.2199L73.0705 79.6667L72.4359 78.023Z" fill="#CF6F64"/>
<path d="M78.0578 78.4043H76.5518L76.8378 80.2023H78.3438L78.0578 78.4043Z" fill="#CF6F64"/>
<path opacity="0.2" d="M67.624 41.2986C67.654 41.6606 67.688 42.0306 67.732 42.4106L73.72 40.4666C74.6551 40.1895 75.4678 39.6018 76.024 38.8006C76.048 38.2666 76.078 37.7046 76.124 37.1186C76.144 36.8346 76.168 36.5426 76.194 36.2466C76.22 35.9506 76.256 35.6226 76.294 35.3066L67.624 41.2986Z" fill="black"/>
<path d="M69.5799 34.7387L69.3799 34.7147C69.4979 33.7147 70.2439 32.9267 71.0299 32.9467V33.1467C70.3419 33.1327 69.6859 33.8427 69.5799 34.7387Z" fill="white"/>
<path d="M70.6453 36.5839H70.6113V36.3839C71.2993 36.4099 71.9453 35.6919 72.0513 34.7979L72.2513 34.8219C72.1453 35.7999 71.4233 36.5839 70.6453 36.5839Z" fill="white"/>
<path d="M74.3838 26.2998C74.1018 27.4018 73.7698 29.4198 74.4958 30.1538C74.4958 30.1538 73.9878 31.2718 71.9418 31.2718C70.0718 31.2718 71.0738 30.1538 71.0738 30.1538C72.3178 29.8618 72.3398 28.9538 72.1758 28.0938L74.3838 26.2998Z" fill="#E58A7B"/>
<path d="M73.4837 27.0322L72.1777 28.0942C72.2182 28.2919 72.2416 28.4926 72.2477 28.6942C72.6297 29.0742 73.3957 28.1122 73.4737 27.6202C73.5134 27.4265 73.5168 27.2272 73.4837 27.0322Z" fill="#CF6F64"/>
<path d="M69.9312 26.2857C70.022 26.4432 70.1444 26.5803 70.2907 26.6884C70.4369 26.7964 70.6039 26.8732 70.7812 26.9137C71.2612 27.0197 71.5012 26.5777 71.3692 26.1337C71.2512 25.7337 70.8572 25.1957 70.3692 25.2877C70.2646 25.3093 70.1668 25.3555 70.0838 25.4227C70.0008 25.4898 69.9351 25.5758 69.8923 25.6736C69.8494 25.7713 69.8305 25.8779 69.8373 25.9844C69.8441 26.0909 69.8762 26.1942 69.9312 26.2857Z" fill="#CF6F64"/>
<path d="M70.726 22.7603C69.978 23.1023 69.714 26.0743 70.654 26.5143C71.594 26.9543 72.142 22.1103 70.726 22.7603Z" fill="#263238"/>
<path d="M74.6111 24.6421C74.4311 26.1341 74.4111 27.0121 73.6111 27.7761C73.3632 28.0297 73.0501 28.2098 72.7063 28.2965C72.3625 28.3833 72.0014 28.3734 71.6629 28.2679C71.3243 28.1623 71.0216 27.9653 70.788 27.6985C70.5544 27.4318 70.399 27.1056 70.3391 26.7561C70.0971 25.4161 70.4311 23.2021 71.9271 22.6081C72.2414 22.4695 72.5871 22.4175 72.9283 22.4574C73.2695 22.4973 73.5939 22.6278 73.8677 22.8353C74.1415 23.0428 74.3548 23.3198 74.4855 23.6375C74.6162 23.9552 74.6596 24.302 74.6111 24.6421Z" fill="#E58A7B"/>
<path d="M72.1533 23.5322C73.2613 23.2502 74.0754 23.0582 73.7834 23.9802C73.3974 25.2122 72.9333 26.4042 73.5553 26.4582C73.9353 26.4922 75.6153 25.7802 75.4013 25.0582C75.2153 24.4302 76.0013 24.2582 76.1413 23.9402C76.6593 22.7882 75.1773 22.9402 75.4413 22.2402C75.7053 21.5402 74.2413 20.4122 73.4413 20.9742C72.1393 21.8822 69.9053 21.8682 71.0793 20.3742C71.9213 19.3082 70.4193 19.5262 70.4193 19.5262C70.4193 19.5262 71.3273 20.0642 69.7993 20.8962C68.1833 21.7842 69.6653 24.1702 72.1533 23.5322Z" fill="#263238"/>
<path d="M75.1991 26.2857C74.9804 26.6022 74.6517 26.8261 74.2771 26.9137C73.7831 27.0197 73.5931 26.5777 73.7791 26.1337C73.9451 25.7337 74.4011 25.1957 74.8731 25.2877C75.3451 25.3797 75.4531 25.8937 75.1991 26.2857Z" fill="#E58A7B"/>
<path d="M67.8798 43.5879C67.8798 43.5879 66.5278 55.6879 66.4218 60.2799C66.3138 65.0559 71.0038 79.9579 71.0038 79.9579L73.4038 78.9579C73.4038 78.9579 70.6038 65.3419 71.0038 60.6519C71.4278 55.5379 73.1798 43.5959 73.1798 43.5959L67.8798 43.5879Z" fill="#407BFF"/>
<path opacity="0.2" d="M71.2399 46.9103C70.1619 49.1463 70.8879 53.5683 71.4719 56.1883C71.6939 54.3383 71.9579 52.3303 72.2079 50.4723C72.1839 47.6163 71.9619 45.4103 71.2399 46.9103Z" fill="black"/>
<path d="M73.2979 78.166C73.3099 78.166 73.5819 78.93 73.5819 78.93L70.8139 80.094L70.3779 79.282L73.2979 78.166Z" fill="#407BFF"/>
<path d="M70.7373 43.5879C70.7373 43.5879 71.7713 55.0959 72.4553 59.4059C73.2073 64.1279 76.1553 79.8539 76.1553 79.8539H78.9133C78.9133 79.8539 77.2613 64.5099 76.9493 59.8339C76.6093 54.7619 75.9333 43.5879 75.9333 43.5879H70.7373Z" fill="#407BFF"/>
<path d="M78.9558 79.1365C78.9678 79.1365 79.0478 79.9065 79.0478 79.9065H76.0158L75.7998 79.0225L78.9558 79.1365Z" fill="#407BFF"/>
<path opacity="0.2" d="M77.8991 78.2239C77.8929 78.224 77.8868 78.2218 77.882 78.2178C77.8772 78.2137 77.8741 78.2081 77.8731 78.2019C77.8571 78.0619 76.3671 64.2019 76.0871 60.0019C75.7831 55.4459 75.1711 45.3399 75.1651 45.2379C75.1648 45.2346 75.1653 45.2313 75.1663 45.2281C75.1674 45.225 75.1692 45.2221 75.1714 45.2196C75.1737 45.2172 75.1764 45.2152 75.1795 45.2139C75.1825 45.2126 75.1858 45.2119 75.1891 45.2119C75.1957 45.2119 75.202 45.2144 75.2068 45.2188C75.2117 45.2233 75.2146 45.2294 75.2151 45.2359C75.2151 45.3379 75.8331 55.4359 76.1371 59.9999C76.4171 64.1999 77.9071 78.0499 77.9211 78.1999C77.9217 78.2032 77.9216 78.2066 77.9207 78.2099C77.9199 78.2131 77.9184 78.2162 77.9163 78.2188C77.9143 78.2214 77.9117 78.2236 77.9087 78.2252C77.9057 78.2268 77.9025 78.2277 77.8991 78.2279V78.2239Z" fill="black"/>
<path d="M72.3238 25.0579C72.3238 25.1799 72.2478 25.2779 72.1678 25.2779C72.0878 25.2779 72.0298 25.1799 72.0378 25.0579C72.0458 24.9359 72.1138 24.8379 72.1938 24.8379C72.2738 24.8379 72.3318 24.9379 72.3238 25.0579Z" fill="#263238"/>
<path d="M70.9515 25.0579C70.9515 25.1799 70.8735 25.2779 70.7955 25.2779C70.7175 25.2779 70.6575 25.1799 70.6635 25.0579C70.6695 24.9359 70.7415 24.8379 70.8215 24.8379C70.9015 24.8379 70.9595 24.9379 70.9515 25.0579Z" fill="#263238"/>
<path d="M71.3832 25.1201C71.2162 25.4927 71.001 25.8416 70.7432 26.1581C70.9432 26.3581 71.3172 26.2661 71.3172 26.2661L71.3832 25.1201Z" fill="#DF5753"/>
<path d="M71.4198 26.7757C71.4152 26.7757 71.4106 26.7748 71.4063 26.773C71.4021 26.7711 71.3982 26.7685 71.395 26.7651C71.3918 26.7617 71.3894 26.7577 71.3878 26.7534C71.3862 26.749 71.3855 26.7444 71.3858 26.7397C71.3863 26.73 71.3905 26.7209 71.3976 26.7142C71.4047 26.7075 71.4141 26.7037 71.4238 26.7037C71.5768 26.7048 71.728 26.6716 71.8665 26.6065C72.0049 26.5414 72.127 26.4462 72.2238 26.3277C72.2307 26.3217 72.2396 26.3184 72.2488 26.3184C72.258 26.3184 72.2669 26.3217 72.2738 26.3277C72.2803 26.3345 72.2839 26.3434 72.2839 26.3527C72.2839 26.3621 72.2803 26.371 72.2738 26.3777C72.1702 26.5036 72.0397 26.6047 71.8919 26.6736C71.7442 26.7425 71.5828 26.7774 71.4198 26.7757Z" fill="#263238"/>
<path d="M72.5672 24.6902C72.5576 24.6951 72.5469 24.6976 72.5362 24.6976C72.5254 24.6976 72.5148 24.6951 72.5052 24.6902C72.4303 24.6418 72.3452 24.6117 72.2566 24.6023C72.168 24.593 72.0785 24.6045 71.9952 24.6362C71.987 24.6402 71.9782 24.6426 71.9691 24.6432C71.9601 24.6438 71.951 24.6426 71.9424 24.6396C71.9338 24.6366 71.926 24.6319 71.9192 24.6258C71.9125 24.6198 71.907 24.6124 71.9032 24.6042C71.8957 24.5864 71.8956 24.5664 71.9027 24.5484C71.9098 24.5305 71.9236 24.5161 71.9412 24.5082C72.0457 24.4655 72.159 24.4486 72.2715 24.4591C72.384 24.4695 72.4923 24.5069 72.5872 24.5682C72.5948 24.5734 72.6014 24.5801 72.6064 24.5878C72.6115 24.5956 72.615 24.6043 72.6167 24.6134C72.6183 24.6225 72.6182 24.6319 72.6162 24.6409C72.6142 24.65 72.6105 24.6586 72.6052 24.6662C72.5951 24.6776 72.5819 24.686 72.5672 24.6902Z" fill="#263238"/>
<path d="M70.4221 24.2901C70.4114 24.2875 70.4017 24.2819 70.3941 24.2741C70.3874 24.2675 70.3821 24.2598 70.3785 24.2512C70.3749 24.2426 70.373 24.2334 70.373 24.2241C70.373 24.2147 70.3749 24.2055 70.3785 24.1969C70.3821 24.1884 70.3874 24.1806 70.3941 24.1741C70.4707 24.0881 70.5662 24.021 70.673 23.978C70.7799 23.9349 70.8952 23.9172 71.0101 23.9261C71.0193 23.9275 71.0281 23.9308 71.0359 23.9357C71.0438 23.9407 71.0506 23.9472 71.0558 23.9549C71.0611 23.9626 71.0647 23.9713 71.0665 23.9804C71.0682 23.9896 71.0681 23.999 71.0661 24.0081C71.0618 24.0266 71.0509 24.0429 71.0354 24.0539C71.0199 24.065 71.001 24.07 70.9821 24.0681C70.8912 24.0623 70.8002 24.0774 70.716 24.112C70.6318 24.1467 70.5566 24.2 70.4961 24.2681C70.4869 24.2782 70.4752 24.2856 70.4622 24.2895C70.4491 24.2934 70.4352 24.2936 70.4221 24.2901Z" fill="#263238"/>
<path d="M77.9452 32.4642L75.8652 31.9102C75.8652 31.9102 73.8252 36.9322 73.1032 37.2582C72.1232 37.7062 69.6412 39.2582 68.5852 39.9922C68.5272 40.2422 68.5732 40.9042 68.7052 41.0862C70.5052 40.7582 73.9512 39.4322 74.6712 38.7582C76.3132 37.2202 77.9452 32.4642 77.9452 32.4642Z" fill="#E58A7B"/>
<path d="M76.4936 81.9801C76.3921 81.9882 76.2909 81.9606 76.2076 81.9021C76.1818 81.8789 76.1625 81.8493 76.1517 81.8164C76.1408 81.7834 76.1387 81.7482 76.1456 81.7141C76.1468 81.6929 76.1538 81.6724 76.1658 81.6548C76.1777 81.6372 76.1943 81.6231 76.2136 81.6141C76.3816 81.5281 76.8516 81.8261 76.9056 81.8601C76.9115 81.8638 76.9161 81.8693 76.9186 81.8758C76.9211 81.8823 76.9215 81.8894 76.9196 81.8961C76.9178 81.9031 76.9144 81.9095 76.9095 81.9148C76.9046 81.9201 76.8984 81.924 76.8916 81.9261C76.7612 81.9582 76.6278 81.9763 76.4936 81.9801ZM76.2936 81.6681C76.2784 81.6648 76.2627 81.6648 76.2476 81.6681C76.2399 81.672 76.2335 81.6781 76.2293 81.6856C76.225 81.693 76.223 81.7016 76.2236 81.7101C76.2182 81.7334 76.2191 81.7577 76.2261 81.7805C76.2332 81.8033 76.2461 81.8239 76.2636 81.8401C76.3416 81.9101 76.5376 81.9181 76.7956 81.8681C76.6419 81.767 76.4689 81.6989 76.2876 81.6681H76.2936Z" fill="#407BFF"/>
<path d="M76.8819 81.9257C76.8767 81.9274 76.8711 81.9274 76.8659 81.9257C76.7159 81.8417 76.4339 81.5117 76.4759 81.3437C76.4822 81.3171 76.4972 81.2933 76.5186 81.2763C76.54 81.2592 76.5665 81.2499 76.5939 81.2497C76.6207 81.2461 76.648 81.2484 76.6739 81.2563C76.6998 81.2642 76.7237 81.2777 76.7439 81.2957C76.9099 81.4377 76.9199 81.8737 76.9199 81.8957C76.9209 81.9023 76.9196 81.909 76.9164 81.9148C76.9131 81.9206 76.908 81.9251 76.9019 81.9277C76.8952 81.9291 76.8882 81.9284 76.8819 81.9257ZM76.6139 81.3157H76.5999C76.5539 81.3157 76.5479 81.3417 76.5459 81.3517C76.5219 81.4497 76.6999 81.6997 76.8479 81.8177C76.8472 81.6488 76.7949 81.4841 76.6979 81.3457C76.6747 81.3255 76.6447 81.3147 76.6139 81.3157Z" fill="#407BFF"/>
<path d="M71.184 81.7302C71.0616 81.7729 70.9284 81.7729 70.806 81.7302C70.7782 81.7151 70.7546 81.6933 70.7375 81.6668C70.7204 81.6402 70.7102 81.6097 70.708 81.5782C70.7055 81.5584 70.708 81.5383 70.7153 81.5198C70.7227 81.5012 70.7346 81.4849 70.75 81.4722C70.91 81.3282 71.564 81.4722 71.638 81.5002C71.645 81.502 71.6512 81.5062 71.6556 81.512C71.66 81.5178 71.6622 81.5249 71.662 81.5322C71.6623 81.5397 71.6604 81.5471 71.6564 81.5535C71.6525 81.5599 71.6468 81.565 71.64 81.5682C71.4927 81.6347 71.3402 81.6889 71.184 81.7302ZM70.858 81.4922C70.8351 81.4968 70.8138 81.5071 70.796 81.5222C70.7896 81.527 70.7847 81.5334 70.7819 81.5409C70.7791 81.5483 70.7784 81.5564 70.78 81.5642C70.7813 81.5852 70.7878 81.6055 70.799 81.6233C70.8102 81.6411 70.8256 81.6559 70.844 81.6662C70.95 81.7222 71.196 81.6782 71.514 81.5442C71.2998 81.4902 71.078 81.4726 70.858 81.4922Z" fill="#407BFF"/>
<path d="M71.6339 81.5681H71.6179C71.4179 81.5321 71.0179 81.3021 71.0059 81.1301C71.0059 81.0901 71.0239 81.0341 71.1199 81.0021C71.1523 80.9906 71.1867 80.9857 71.2211 80.9878C71.2554 80.9898 71.289 80.9988 71.3199 81.0141C71.5359 81.1201 71.6499 81.5041 71.6559 81.5221C71.6573 81.5282 71.6571 81.5345 71.6553 81.5405C71.6536 81.5464 71.6503 81.5518 71.6459 81.5561C71.6429 81.561 71.6388 81.5652 71.6339 81.5681ZM71.1599 81.0621H71.1399C71.0779 81.0841 71.0779 81.1101 71.0779 81.1181C71.0779 81.2221 71.3679 81.4121 71.5699 81.4761C71.5233 81.3155 71.4249 81.1748 71.2899 81.0761C71.2497 81.0557 71.2034 81.0507 71.1599 81.0621Z" fill="#407BFF"/>
<path d="M68.7557 39.874L66.6697 40.834L66.4277 41.434L67.1977 41.952C67.1977 41.952 68.6377 41.796 69.0477 40.87L68.7557 39.874Z" fill="#E58A7B"/>
<path d="M68.8441 41.1202C68.7974 40.7194 68.6651 40.3334 68.4561 39.9882L68.7861 39.7402C69.0343 40.1379 69.1927 40.585 69.2501 41.0502L68.8441 41.1202Z" fill="#263238"/>
<path d="M69.1995 40.1586C69.2436 40.2279 69.2652 40.3092 69.2615 40.3913C69.2578 40.4734 69.2289 40.5524 69.1787 40.6175C69.1285 40.6826 69.0594 40.7306 68.981 40.7551C68.9025 40.7795 68.8184 40.7792 68.7401 40.7542C68.6618 40.7292 68.5932 40.6806 68.5434 40.6152C68.4937 40.5497 68.4653 40.4706 68.4622 40.3884C68.4591 40.3063 68.4813 40.2252 68.5259 40.1562C68.5705 40.0871 68.6353 40.0335 68.7115 40.0026C68.7969 39.959 68.8962 39.951 68.9876 39.9802C69.0789 40.0094 69.1551 40.0735 69.1995 40.1586Z" fill="#263238"/>
<path d="M65.2598 41.61L65.5378 41.89L67.4098 41.09L66.6698 40.834L65.2598 41.61Z" fill="#E58A7B"/>
<path opacity="0.2" d="M73.2979 78.166C73.3099 78.166 73.5819 78.93 73.5819 78.93L70.8139 80.094L70.3779 79.282L73.2979 78.166Z" fill="black"/>
<path opacity="0.2" d="M78.9558 79.1365C78.9678 79.1365 79.0478 79.9065 79.0478 79.9065H76.0158L75.7998 79.0225L78.9558 79.1365Z" fill="black"/>
<path d="M78.488 31.8886C79.038 33.6626 76.888 36.0886 76.888 36.0886L73.918 34.8766C74.27 33.8513 74.6759 32.8452 75.134 31.8626C76.046 29.8966 77.932 30.0986 78.488 31.8886Z" fill="#407BFF"/>
<path opacity="0.2" d="M78.488 31.8886C79.038 33.6626 76.888 36.0886 76.888 36.0886L73.918 34.8766C74.27 33.8513 74.6759 32.8452 75.134 31.8626C76.046 29.8966 77.932 30.0986 78.488 31.8886Z" fill="black"/>
<path d="M48.9762 14.1143H47.6982V14.3203H48.9762V14.1143Z" fill="#407BFF"/>
<path d="M65.5199 22.2677L65.3652 25.7002L65.571 25.7095L65.7257 22.277L65.5199 22.2677Z" fill="#407BFF"/>
<path d="M65.1222 15.0381H41.5222L39.3262 64.1821H62.9262L65.1222 15.0381Z" fill="#407BFF"/>
<path opacity="0.56" d="M64.4181 15.7139H40.8181L38.6221 64.8579H62.2221L64.4181 15.7139Z" fill="#FAFAFA"/>
<path opacity="0.07" d="M63.714 16.3887H40.114L37.916 65.5327H61.516L63.714 16.3887Z" fill="#407BFF"/>
<path d="M61.0278 37.8223H40.8838L40.7158 41.5823H60.8598L61.0278 37.8223Z" fill="white"/>
<path d="M51.9616 35.0781H41.0056L40.9316 36.7601H51.8876L51.9616 35.0781Z" fill="#407BFF"/>
<path d="M60.5737 47.9707H40.4297L40.2617 51.7307H60.4057L60.5737 47.9707Z" fill="white"/>
<path opacity="0.47" d="M56.8798 56.8086H43.3338L43.1318 61.3146H56.6778L56.8798 56.8086Z" fill="#407BFF"/>
<path d="M55.9737 62.0147H42.4277C42.4218 62.0162 42.4156 62.0162 42.4097 62.0147C42.4077 62.0089 42.4077 62.0026 42.4097 61.9967L42.6097 57.4887C42.6097 57.4857 42.6103 57.4826 42.6115 57.4798C42.6128 57.477 42.6146 57.4745 42.6168 57.4724C42.6191 57.4703 42.6218 57.4688 42.6247 57.4678C42.6276 57.4668 42.6306 57.4664 42.6337 57.4667H56.1797C56.1822 57.4655 56.1849 57.4648 56.1877 57.4648C56.1905 57.4648 56.1932 57.4655 56.1957 57.4667C56.1971 57.4691 56.1978 57.4719 56.1978 57.4747C56.1978 57.4775 56.1971 57.4803 56.1957 57.4827L55.9997 62.0007C55.9973 62.0054 55.9935 62.0093 55.9889 62.0118C55.9842 62.0143 55.9789 62.0153 55.9737 62.0147ZM42.4517 61.9667H55.9497L56.1497 57.5067H42.6517L42.4517 61.9667Z" fill="white"/>
<path d="M49.5955 45.2266H40.5515L40.4775 46.9106H49.5195L49.5955 45.2266Z" fill="#407BFF"/>
<path d="M56.6222 25.676C56.5705 26.7702 56.1814 27.8217 55.5082 28.686C55.0099 29.3388 54.3686 29.8688 53.6336 30.2352C52.8987 30.6017 52.0895 30.7949 51.2682 30.8C50.6045 30.805 49.9469 30.6742 49.3357 30.4154C48.7245 30.1567 48.1728 29.7756 47.7145 29.2955C47.2562 28.8155 46.901 28.2467 46.6709 27.6242C46.4407 27.0017 46.3404 26.3387 46.3762 25.676C46.4465 24.3008 47.0396 23.0044 48.034 22.0519C49.0285 21.0995 50.3493 20.5629 51.7262 20.552C52.3904 20.5458 53.0488 20.6758 53.6607 20.9341C54.2726 21.1924 54.825 21.5734 55.2839 22.0537C55.7427 22.5339 56.0982 23.1031 56.3284 23.7261C56.5586 24.3492 56.6586 25.0128 56.6222 25.676Z" fill="white"/>
<path d="M57.1043 21.6247C57.0913 21.9157 56.9878 22.1953 56.8083 22.4247C56.6755 22.5981 56.5049 22.7389 56.3094 22.8363C56.1139 22.9337 55.8987 22.9851 55.6803 22.9867C55.4687 22.988 55.26 22.9374 55.0725 22.8395C54.8849 22.7415 54.7242 22.5991 54.6043 22.4247C54.4456 22.189 54.3671 21.9085 54.3803 21.6247C54.3997 21.2596 54.5576 20.9156 54.8218 20.6629C55.086 20.4102 55.4367 20.2678 55.8023 20.2647C55.9787 20.2631 56.1536 20.2976 56.3161 20.3661C56.4786 20.4347 56.6254 20.5358 56.7474 20.6632C56.8694 20.7906 56.964 20.9416 57.0254 21.107C57.0868 21.2724 57.1136 21.4486 57.1043 21.6247Z" fill="#407BFF"/>
<path d="M43.0544 39.7026C43.0448 39.8637 42.9745 40.0153 42.8576 40.1266C42.7407 40.2379 42.5859 40.3008 42.4244 40.3026C42.3465 40.3035 42.2692 40.2884 42.1973 40.2583C42.1254 40.2281 42.0605 40.1836 42.0065 40.1273C41.9525 40.0711 41.9106 40.0044 41.8834 39.9313C41.8562 39.8583 41.8443 39.7804 41.8484 39.7026C41.8571 39.5411 41.9272 39.389 42.0443 39.2774C42.1614 39.1659 42.3167 39.1033 42.4784 39.1026C42.5563 39.1019 42.6335 39.1172 42.7053 39.1474C42.777 39.1777 42.8418 39.2222 42.8958 39.2784C42.9497 39.3346 42.9916 39.4012 43.0189 39.4741C43.0462 39.547 43.0583 39.6248 43.0544 39.7026Z" fill="#263238"/>
<path d="M45.7497 39.7026C45.7406 39.8639 45.6704 40.0157 45.5534 40.1272C45.4363 40.2386 45.2813 40.3013 45.1197 40.3026C45.0419 40.3032 44.9648 40.288 44.8932 40.2577C44.8215 40.2274 44.7568 40.1828 44.703 40.1266C44.6493 40.0704 44.6076 40.0038 44.5805 39.9309C44.5535 39.858 44.5416 39.7803 44.5457 39.7026C44.5544 39.5414 44.6241 39.3896 44.7408 39.2782C44.8575 39.1667 45.0123 39.1039 45.1737 39.1026C45.2517 39.1017 45.329 39.1167 45.4009 39.1469C45.4728 39.177 45.5377 39.2216 45.5917 39.2778C45.6457 39.334 45.6876 39.4007 45.7147 39.4738C45.7419 39.5469 45.7538 39.6247 45.7497 39.7026Z" fill="#263238"/>
<path d="M48.4479 39.7026C48.4388 39.8639 48.3685 40.0157 48.2515 40.1272C48.1345 40.2386 47.9795 40.3013 47.8179 40.3026C47.74 40.3032 47.6629 40.288 47.5911 40.2577C47.5193 40.2275 47.4545 40.1829 47.4006 40.1267C47.3466 40.0706 47.3048 40.004 47.2775 39.931C47.2502 39.8581 47.2381 39.7804 47.2419 39.7026C47.251 39.5412 47.3212 39.3895 47.4383 39.278C47.5553 39.1666 47.7103 39.1038 47.8719 39.1026C47.9498 39.1017 48.0272 39.1167 48.0991 39.1469C48.1709 39.177 48.2359 39.2216 48.2899 39.2778C48.3439 39.334 48.3857 39.4007 48.4129 39.4738C48.4401 39.5469 48.452 39.6247 48.4479 39.7026Z" fill="#263238"/>
<path d="M42.6002 49.85C42.5906 50.0112 42.5203 50.1627 42.4034 50.2741C42.2865 50.3854 42.1317 50.4483 41.9702 50.45C41.8924 50.4507 41.8152 50.4354 41.7434 50.4052C41.6717 50.3749 41.6068 50.3303 41.5529 50.2742C41.499 50.218 41.4571 50.1514 41.4298 50.0785C41.4025 50.0055 41.3904 49.9278 41.3942 49.85C41.4034 49.6887 41.4736 49.5369 41.5906 49.4254C41.7076 49.314 41.8627 49.2513 42.0242 49.25C42.1021 49.2494 42.1793 49.2646 42.251 49.2949C42.3228 49.3251 42.3876 49.3697 42.4416 49.4259C42.4955 49.482 42.5374 49.5486 42.5647 49.6216C42.5919 49.6945 42.6041 49.7722 42.6002 49.85Z" fill="#263238"/>
<path d="M45.2956 49.85C45.2865 50.011 45.2166 50.1625 45.1 50.2739C44.9834 50.3853 44.8288 50.4482 44.6676 50.45C44.5897 50.4509 44.5123 50.4359 44.4405 50.4057C44.3686 50.3756 44.3036 50.331 44.2496 50.2748C44.1956 50.2186 44.1538 50.1519 44.1266 50.0788C44.0994 50.0057 44.0875 49.9279 44.0916 49.85C44.1008 49.6887 44.171 49.5369 44.288 49.4254C44.405 49.314 44.56 49.2513 44.7216 49.25C44.7994 49.2494 44.8765 49.2646 44.9481 49.2949C45.0198 49.3252 45.0845 49.3698 45.1383 49.426C45.192 49.4822 45.2337 49.5488 45.2608 49.6217C45.2879 49.6947 45.2997 49.7723 45.2956 49.85Z" fill="#263238"/>
<path d="M47.9996 49.85C47.9904 50.0114 47.9202 50.1632 47.8032 50.2746C47.6862 50.3861 47.5311 50.4488 47.3696 50.45C47.2918 50.4504 47.2147 50.4349 47.1431 50.4046C47.0715 50.3743 47.0068 50.3297 46.9529 50.2736C46.899 50.2174 46.8571 50.151 46.8297 50.0782C46.8023 50.0054 46.79 49.9277 46.7936 49.85C46.8032 49.6889 46.8735 49.5373 46.9904 49.426C47.1073 49.3147 47.2621 49.2518 47.4236 49.25C47.5015 49.2491 47.5788 49.2642 47.6507 49.2943C47.7226 49.3245 47.7876 49.369 47.8415 49.4253C47.8955 49.4815 47.9374 49.5482 47.9646 49.6213C47.9918 49.6943 48.0037 49.7722 47.9996 49.85Z" fill="#263238"/>
<path d="M50.6919 49.85C50.6823 50.0112 50.612 50.1627 50.4951 50.2741C50.3782 50.3854 50.2234 50.4483 50.0619 50.45C49.9842 50.4504 49.9071 50.4349 49.8355 50.4046C49.7639 50.3742 49.6991 50.3297 49.6453 50.2735C49.5914 50.2174 49.5495 50.1509 49.5221 50.0781C49.4947 50.0053 49.4824 49.9277 49.4859 49.85C49.4955 49.6889 49.5659 49.5373 49.6828 49.426C49.7997 49.3146 49.9545 49.2518 50.1159 49.25C50.1938 49.2494 50.271 49.2646 50.3427 49.2949C50.4145 49.3251 50.4793 49.3697 50.5333 49.4259C50.5872 49.482 50.6291 49.5486 50.6564 49.6216C50.6837 49.6945 50.6958 49.7722 50.6919 49.85Z" fill="#263238"/>
<path d="M53.4002 49.85C53.3905 50.0112 53.3202 50.1627 53.2033 50.2741C53.0864 50.3854 52.9316 50.4483 52.7702 50.45C52.6922 50.4509 52.6149 50.4359 52.543 50.4057C52.4711 50.3756 52.4062 50.331 52.3522 50.2748C52.2982 50.2186 52.2563 50.1519 52.2291 50.0788C52.2019 50.0057 52.19 49.9279 52.1942 49.85C52.2033 49.6887 52.2735 49.5369 52.3905 49.4254C52.5075 49.314 52.6626 49.2513 52.8242 49.25C52.902 49.2494 52.9792 49.2646 53.051 49.2949C53.1227 49.3251 53.1875 49.3697 53.2415 49.4259C53.2954 49.482 53.3373 49.5486 53.3646 49.6216C53.3919 49.6945 53.404 49.7722 53.4002 49.85Z" fill="#263238"/>
<path d="M52.9903 25.4089C53.8274 24.5903 53.8719 23.2782 53.0895 22.4782C52.3072 21.6782 50.9944 21.6933 50.1573 22.5119C49.3202 23.3305 49.2758 24.6427 50.0581 25.4427C50.8404 26.2426 52.1532 26.2275 52.9903 25.4089Z" fill="#407BFF"/>
<path d="M55.5077 28.6859C55.0094 29.3388 54.3682 29.8687 53.6332 30.2352C52.8982 30.6017 52.089 30.7948 51.2677 30.7999C50.4713 30.8067 49.6855 30.6174 48.9796 30.2487C48.2736 29.8801 47.6693 29.3434 47.2197 28.6859C48.1917 27.7179 49.7297 27.0859 51.4337 27.0859C53.1377 27.0859 54.6217 27.7179 55.5077 28.6859Z" fill="#407BFF"/>
<path opacity="0.1" d="M52.9903 25.4089C53.8274 24.5903 53.8719 23.2782 53.0895 22.4782C52.3072 21.6782 50.9944 21.6933 50.1573 22.5119C49.3202 23.3305 49.2758 24.6427 50.0581 25.4427C50.8404 26.2426 52.1532 26.2275 52.9903 25.4089Z" fill="white"/>
<path opacity="0.1" d="M55.5077 28.6859C55.0094 29.3388 54.3682 29.8687 53.6332 30.2352C52.8982 30.6017 52.089 30.7948 51.2677 30.7999C50.4713 30.8067 49.6855 30.6174 48.9796 30.2487C48.2736 29.8801 47.6693 29.3434 47.2197 28.6859C48.1917 27.7179 49.7297 27.0859 51.4337 27.0859C53.1377 27.0859 54.6217 27.7179 55.5077 28.6859Z" fill="white"/>
<path d="M26.0822 42.4885C25.8922 42.9045 25.6922 43.3625 25.5182 43.8065C25.3442 44.2505 25.1662 44.7085 25.0122 45.1645C24.6977 46.0632 24.4583 46.9863 24.2962 47.9245L24.2522 48.2185C24.248 48.2689 24.2527 48.3197 24.2662 48.3685C24.3134 48.5343 24.3877 48.6911 24.4862 48.8325C24.743 49.1987 25.041 49.5342 25.3742 49.8325C25.7255 50.1593 26.094 50.4671 26.4782 50.7545C26.8622 51.0505 27.2662 51.3385 27.6642 51.6105L27.2902 52.3125C26.3398 51.8984 25.4378 51.3813 24.6002 50.7705C24.1533 50.4446 23.75 50.0628 23.4002 49.6345C23.1928 49.3795 23.0311 49.0906 22.9222 48.7805C22.8589 48.5868 22.8265 48.3843 22.8262 48.1805C22.8262 48.1325 22.8262 48.0625 22.8262 48.0285V47.9305L22.8462 47.7305C22.9608 46.6885 23.1799 45.6607 23.5002 44.6625C23.6562 44.1705 23.8222 43.6805 24.0122 43.2025C24.2022 42.7245 24.3982 42.2565 24.6402 41.7705L26.0822 42.4885Z" fill="#E58A7B"/>
<path d="M27.3818 51.4865L28.7958 50.7705L28.4298 52.3225C28.4298 52.3225 27.4598 52.5945 27.0098 52.1225L27.3818 51.4865Z" fill="#E58A7B"/>
<path d="M30.0897 51.0245L29.7137 52.3085L28.4297 52.3225L28.7957 50.7705L30.0897 51.0245Z" fill="#E58A7B"/>
<path d="M32.086 35C32.1617 35.2772 32.2669 35.5454 32.4 35.8C32.3611 35.8441 32.3111 35.8769 32.2551 35.8948C32.1991 35.9128 32.1393 35.9153 32.082 35.902L32.086 35Z" fill="#DF5753"/>
<path d="M32.0436 35.0118C32.1264 35.0118 32.1936 34.9088 32.1936 34.7818C32.1936 34.6547 32.1264 34.5518 32.0436 34.5518C31.9607 34.5518 31.8936 34.6547 31.8936 34.7818C31.8936 34.9088 31.9607 35.0118 32.0436 35.0118Z" fill="#263238"/>
<path d="M32 34.5606L32.304 34.4746C32.304 34.4746 32.156 34.7106 32 34.5606Z" fill="#263238"/>
<path d="M28.1796 36.4678C28.3616 37.3978 28.5436 39.1038 27.8916 39.7258C27.8916 39.7258 28.1476 40.6698 29.8776 40.6698C31.7796 40.6698 30.7856 39.7258 30.7856 39.7258C29.7476 39.4778 29.7736 38.7078 29.9556 37.9838L28.1796 36.4678Z" fill="#E58A7B"/>
<path d="M27.674 34.3482C27.77 35.9022 27.778 36.5622 28.562 37.3602C29.744 38.5602 31.632 38.1042 32.002 36.5602C32.336 35.1602 32.124 32.8562 30.602 32.2382C30.2679 32.1006 29.9042 32.0505 29.5454 32.0926C29.1865 32.1347 28.8443 32.2677 28.5512 32.4789C28.258 32.6902 28.0236 32.9727 27.8701 33.2998C27.7166 33.6269 27.6491 33.9878 27.674 34.3482Z" fill="#E58A7B"/>
<path d="M27.8276 32.6004C27.0476 32.8844 26.0076 32.6724 26.4156 35.0784C26.8476 37.6264 26.1836 38.4644 26.1836 38.4644C26.1836 38.4644 29.1416 39.0944 32.1616 38.4264C32.1616 38.4264 31.2396 36.8144 31.4976 35.6264C31.8276 34.1264 31.5676 33.5724 31.5676 33.5724C31.5676 33.5724 28.9236 32.2004 27.8276 32.6004Z" fill="#263238"/>
<path d="M31.1279 35.1582C31.1287 35.4537 31.2133 35.7429 31.3719 35.9922C31.5839 36.3162 31.8339 36.1922 31.8959 35.8482C31.9519 35.5462 31.9099 35.0122 31.6399 34.8042C31.3699 34.5962 31.1319 34.8002 31.1279 35.1582Z" fill="#E58A7B"/>
<path d="M27.1503 32.8622C26.9263 32.2322 27.9943 31.2622 30.2543 31.6622C32.5143 32.0622 32.6123 33.9442 32.6123 33.9442L32.1563 33.4002L32.1763 33.9722L29.8543 34.4182L27.1503 32.8622Z" fill="#263238"/>
<path d="M27.3416 39.8325C27.3283 39.7412 27.3511 39.6482 27.4053 39.5735C27.4595 39.4988 27.5407 39.4482 27.6316 39.4325C28.3356 39.3165 29.9356 39.0805 30.7396 39.1925C31.3396 39.2765 31.4956 39.6245 31.5216 39.9105C31.5257 39.9606 31.519 40.0109 31.502 40.0582C31.485 40.1055 31.458 40.1486 31.423 40.1846C31.3879 40.2206 31.3456 40.2486 31.2988 40.2669C31.252 40.2852 31.2018 40.2932 31.1516 40.2905L27.6756 40.1345C27.5937 40.1303 27.5157 40.098 27.4548 40.043C27.3939 39.988 27.354 39.9136 27.3416 39.8325Z" fill="#407BFF"/>
<path opacity="0.6" d="M27.3416 39.8325C27.3283 39.7412 27.3511 39.6482 27.4053 39.5735C27.4595 39.4988 27.5407 39.4482 27.6316 39.4325C28.3356 39.3165 29.9356 39.0805 30.7396 39.1925C31.3396 39.2765 31.4956 39.6245 31.5216 39.9105C31.5257 39.9606 31.519 40.0109 31.502 40.0582C31.485 40.1055 31.458 40.1486 31.423 40.1846C31.3879 40.2206 31.3456 40.2486 31.2988 40.2669C31.252 40.2852 31.2018 40.2932 31.1516 40.2905L27.6756 40.1345C27.5937 40.1303 27.5157 40.098 27.4548 40.043C27.3939 39.988 27.354 39.9136 27.3416 39.8325Z" fill="black"/>
<path d="M29.3516 74.7726L30.6416 75.6686L32.7996 72.7426L31.5096 71.8486L29.3516 74.7726Z" fill="#E58A7B"/>
<path d="M26.3438 74.7141L27.7057 75.4901L29.6158 72.3961L28.2538 71.6201L26.3438 74.7141Z" fill="#E58A7B"/>
<path d="M32.7975 72.7426L31.6855 74.2506L30.3955 73.3566L31.5075 71.8486L32.7975 72.7426Z" fill="#CF6F64"/>
<path d="M28.2516 71.6201L29.6156 72.3981L28.6316 73.9921L27.2676 73.2141L28.2516 71.6201Z" fill="#CF6F64"/>
<path d="M30.4398 49.6006C30.4398 49.6006 35.4758 55.9466 34.5298 62.0166C33.7678 66.9186 29.3478 73.5566 29.3478 73.5566L27.2698 72.5246C28.7345 69.5896 29.9845 66.5523 31.0098 63.4366C31.326 62.4693 31.4183 61.4427 31.2797 60.4345C31.1411 59.4263 30.7753 58.4627 30.2098 57.6166C27.6578 53.8906 23.5698 56.1086 26.3198 49.6006H30.4398Z" fill="#407BFF"/>
<path opacity="0.6" d="M30.4398 49.6006C30.4398 49.6006 35.4758 55.9466 34.5298 62.0166C33.7678 66.9186 29.3478 73.5566 29.3478 73.5566L27.2698 72.5246C28.7345 69.5896 29.9845 66.5523 31.0098 63.4366C31.326 62.4693 31.4183 61.4427 31.2797 60.4345C31.1411 59.4263 30.7753 58.4627 30.2098 57.6166C27.6578 53.8906 23.5698 56.1086 26.3198 49.6006H30.4398Z" fill="black"/>
<path opacity="0.4" d="M32.9097 53.6762L32.1777 52.9482C32.1777 53.0062 33.5957 61.7602 33.9937 64.2202C34.2286 63.5016 34.4085 62.7662 34.5317 62.0202C34.9997 59.0422 34.0217 56.0002 32.9097 53.6762Z" fill="black"/>
<path d="M32.6878 49.6006C32.6878 49.6006 38.7518 57.5766 38.9238 62.3586C39.0658 66.3586 32.3238 74.1086 32.3238 74.1086L30.3638 72.8406C30.3638 72.8406 34.3098 67.3366 35.3038 62.8406C34.9198 58.3846 26.7998 49.6006 26.7998 49.6006H32.6878Z" fill="#407BFF"/>
<path opacity="0.6" d="M32.6878 49.6006C32.6878 49.6006 38.7518 57.5766 38.9238 62.3586C39.0658 66.3586 32.3238 74.1086 32.3238 74.1086L30.3638 72.8406C30.3638 72.8406 34.3098 67.3366 35.3038 62.8406C34.9198 58.3846 26.7998 49.6006 26.7998 49.6006H32.6878Z" fill="black"/>
<path d="M25.186 40.0822C24.538 40.2362 23.916 42.5922 23.916 42.5922L26.45 44.2842C26.45 44.2842 27.294 42.4202 26.998 41.6042C26.692 40.7542 26 39.8882 25.186 40.0822Z" fill="#407BFF"/>
<path opacity="0.2" d="M25.6819 41.6006L25.5059 43.6546L26.4479 44.2866C26.708 43.701 26.9005 43.0877 27.0219 42.4586L25.6819 41.6006Z" fill="black"/>
<path d="M33.4375 40.1286C33.4375 40.1286 34.1855 40.3906 32.6875 49.5986H26.3155C26.4235 46.9986 26.4255 45.3986 25.1855 40.0826C26.0778 39.8987 26.9821 39.7798 27.8915 39.7266C28.855 39.6575 29.8221 39.6575 30.7855 39.7266C32.0295 39.8406 33.4375 40.1286 33.4375 40.1286Z" fill="#407BFF"/>
<path d="M34.0863 41.6001C34.2303 42.0001 34.3823 42.4301 34.5423 42.8441C34.7023 43.2581 34.8543 43.6841 35.0163 44.1041L35.5063 45.3601L35.6303 45.6741L35.6943 45.8301L35.7243 45.9081C35.7243 45.9221 35.7243 45.9221 35.7243 45.9201C35.6878 45.8686 35.6399 45.8262 35.5843 45.7961C35.5052 45.7495 35.416 45.7228 35.3243 45.7181C35.2481 45.7157 35.1724 45.7301 35.1023 45.7601C35.0103 45.8021 35.0103 45.8201 35.0123 45.8181C35.0289 45.8048 35.0437 45.7893 35.0563 45.7721C35.167 45.6267 35.2628 45.4706 35.3423 45.3061C35.4363 45.1221 35.5263 44.9261 35.6163 44.7281C35.7923 44.3281 35.9543 43.9141 36.1163 43.4961C36.2783 43.0781 36.4323 42.6561 36.5823 42.2301L37.0383 40.9541L37.8083 41.1541C37.6563 42.0661 37.4603 42.9541 37.2243 43.8581C37.1103 44.3081 36.9763 44.7541 36.8243 45.2041C36.7483 45.4301 36.6643 45.6541 36.5683 45.8841C36.4683 46.1337 36.345 46.3734 36.2003 46.6001C36.1471 46.6764 36.0883 46.7486 36.0243 46.8161C35.9222 46.9264 35.7982 47.0143 35.6603 47.0741C35.5379 47.1266 35.4054 47.1512 35.2723 47.1461C35.1232 47.1405 34.978 47.0972 34.8503 47.0201C34.6996 46.9261 34.5746 46.7962 34.4863 46.6421C34.4563 46.5901 34.4303 46.5381 34.4123 46.5001L34.3743 46.4241L34.2983 46.2681L34.1463 45.9581C33.9463 45.5421 33.7463 45.1221 33.5723 44.7001C33.3983 44.2781 33.2143 43.8501 33.0423 43.4201C32.8703 42.9901 32.7163 42.5601 32.5703 42.0961L34.0863 41.6001Z" fill="#E58A7B"/>
<path d="M33.438 40.1283C34.204 40.3103 35.066 42.5743 35.066 42.5743L32.788 44.5123C32.788 44.5123 31.314 42.0443 31.612 41.2303C31.922 40.3823 32.438 39.8903 33.438 40.1283Z" fill="#407BFF"/>
<path d="M37.3996 40.2383L38.1996 39.5703L38.7556 40.4363L38.3456 41.1583C38.3456 41.1583 37.6936 41.7583 37.1176 41.4523C37.0262 41.2468 37.0042 41.0171 37.0551 40.798C37.106 40.579 37.227 40.3825 37.3996 40.2383Z" fill="#E58A7B"/>
<path d="M39.6443 39.5723L39.5843 39.7903L38.3183 40.0023L38.1943 39.5703L39.6443 39.5723Z" fill="#E58A7B"/>
<path d="M32.4803 74.2105L30.1963 72.7345L30.6063 72.0225L33.1723 73.6005L32.4803 74.2105Z" fill="#407BFF"/>
<path d="M28.5999 75.3858C28.3995 75.3613 28.2069 75.293 28.0359 75.1858C28.0288 75.1833 28.0227 75.1787 28.0184 75.1726C28.014 75.1665 28.0117 75.1592 28.0117 75.1518C28.0117 75.1443 28.014 75.137 28.0184 75.1309C28.0227 75.1248 28.0288 75.1202 28.0359 75.1178C28.0979 75.0978 28.6359 74.9318 28.7919 75.0598C28.8094 75.0743 28.8227 75.0933 28.8305 75.1148C28.8382 75.1362 28.8401 75.1594 28.8359 75.1818C28.8331 75.2178 28.8212 75.2525 28.8012 75.2826C28.7813 75.3127 28.754 75.3372 28.7219 75.3538C28.6844 75.3742 28.6426 75.3852 28.5999 75.3858ZM28.1499 75.1658C28.3999 75.2938 28.5999 75.3398 28.6959 75.2918C28.7168 75.2802 28.7344 75.2634 28.747 75.2431C28.7596 75.2228 28.7668 75.1996 28.7679 75.1758C28.7679 75.1438 28.7679 75.1298 28.7499 75.1218C28.6659 75.0538 28.3659 75.1058 28.1459 75.1658H28.1499Z" fill="#263238"/>
<path d="M28.0501 75.2C28.0396 75.1999 28.0295 75.1956 28.0221 75.188C28.0191 75.1825 28.0176 75.1763 28.0176 75.17C28.0176 75.1637 28.0191 75.1576 28.0221 75.152C28.0221 75.134 28.1521 74.7 28.3561 74.602C28.3822 74.5901 28.4105 74.584 28.4391 74.584C28.4678 74.584 28.4961 74.5901 28.5221 74.602C28.5502 74.6109 28.5745 74.6289 28.5912 74.6532C28.6079 74.6775 28.6159 74.7066 28.6141 74.736C28.6001 74.916 28.2341 75.164 28.0661 75.206L28.0501 75.2ZM28.4381 74.654C28.4187 74.6546 28.3996 74.6594 28.3821 74.668C28.2581 74.728 28.1561 74.962 28.1061 75.104C28.2821 75.03 28.5241 74.834 28.5321 74.724C28.5321 74.706 28.5321 74.684 28.4861 74.664C28.4711 74.656 28.4549 74.6506 28.4381 74.648V74.654Z" fill="#263238"/>
<path d="M31.4541 76.2498C31.2281 76.2498 30.9141 75.9598 30.7421 75.7818C30.7377 75.7757 30.7354 75.7683 30.7354 75.7608C30.7354 75.7532 30.7377 75.7459 30.7421 75.7398C30.7461 75.7333 30.7517 75.7281 30.7584 75.7246C30.765 75.721 30.7726 75.7194 30.7801 75.7198C30.8601 75.7198 31.5541 75.8238 31.6521 76.0198C31.6625 76.0373 31.668 76.0574 31.668 76.0778C31.668 76.0982 31.6625 76.1182 31.6521 76.1358C31.6374 76.1663 31.6152 76.1926 31.5876 76.2122C31.5599 76.2318 31.5278 76.244 31.4941 76.2478L31.4541 76.2498ZM30.8741 75.8098C31.1261 76.0538 31.3481 76.1898 31.4741 76.1738C31.4962 76.1709 31.5172 76.1626 31.5353 76.1497C31.5535 76.1368 31.5682 76.1197 31.5781 76.0998C31.5826 76.0929 31.585 76.085 31.585 76.0768C31.585 76.0686 31.5826 76.0606 31.5781 76.0538C31.5261 75.9458 31.1561 75.8538 30.8741 75.8098Z" fill="#263238"/>
<path d="M30.896 75.8C30.8511 75.8013 30.8062 75.798 30.762 75.79C30.7559 75.7891 30.75 75.7866 30.7451 75.7827C30.7402 75.7789 30.7364 75.7738 30.734 75.768C30.731 75.7621 30.7295 75.7556 30.7295 75.749C30.7295 75.7424 30.731 75.7359 30.734 75.73C30.746 75.716 31.016 75.39 31.272 75.368C31.3445 75.3624 31.4163 75.3854 31.472 75.432C31.55 75.5 31.546 75.56 31.526 75.598C31.476 75.734 31.13 75.8 30.896 75.8ZM30.844 75.726C31.068 75.738 31.426 75.664 31.472 75.566C31.472 75.566 31.488 75.534 31.436 75.49C31.4153 75.472 31.3912 75.4585 31.365 75.4502C31.3389 75.442 31.3113 75.4392 31.284 75.442C31.1116 75.4902 30.958 75.59 30.844 75.728V75.726Z" fill="#263238"/>
<path d="M28.1037 74.9844L26.4076 74.5043C26.3784 74.4955 26.3469 74.4977 26.3193 74.5107C26.2916 74.5236 26.2696 74.5463 26.2576 74.5743L25.6856 75.8603C25.6722 75.8933 25.6659 75.9287 25.6671 75.9642C25.6684 75.9998 25.6771 76.0347 25.6928 76.0666C25.7085 76.0985 25.7307 76.1268 25.7581 76.1495C25.7855 76.1722 25.8174 76.1888 25.8516 76.1983C26.4516 76.3543 26.7396 76.3984 27.4856 76.6124C27.9456 76.7404 28.6016 76.9784 29.2356 77.1584C29.8696 77.3384 30.0816 76.7204 29.8356 76.5884C28.7236 76.0004 28.6357 75.5883 28.3317 75.1483C28.2772 75.0687 28.1965 75.0106 28.1037 74.9844Z" fill="#407BFF"/>
<path d="M30.7883 75.5482L29.3403 74.5482C29.3158 74.5303 29.2855 74.5221 29.2553 74.525C29.2251 74.5279 29.197 74.5419 29.1763 74.5642L28.2163 75.5962C28.1929 75.6229 28.1755 75.6542 28.1652 75.6881C28.1548 75.7221 28.1518 75.7578 28.1564 75.793C28.1609 75.8282 28.1729 75.862 28.1915 75.8922C28.2101 75.9224 28.2349 75.9483 28.2643 75.9682C28.7743 76.3102 29.0383 76.4482 29.6763 76.8902C30.0763 77.1622 30.8503 77.7662 31.3903 78.1422C31.9303 78.5182 32.3323 78.0022 32.1403 77.7982C31.2803 76.8802 31.0923 76.3042 30.9503 75.7822C30.9257 75.6875 30.8683 75.6046 30.7883 75.5482Z" fill="#407BFF"/>
<path d="M29.6139 73.6886L27.0039 72.3906L27.2739 71.6826L30.0619 73.0506L29.6139 73.6886Z" fill="#407BFF"/>
<path d="M26.2202 49.2242L26.0002 49.8002C25.9782 49.8442 26.0302 49.8902 26.1042 49.8902H32.7202C32.7782 49.8902 32.8262 49.8622 32.8302 49.8262L32.8862 49.2542C32.8862 49.2162 32.8402 49.1822 32.7782 49.1822H26.3242C26.3048 49.1803 26.2852 49.1832 26.2671 49.1905C26.249 49.1978 26.2329 49.2094 26.2202 49.2242Z" fill="#407BFF"/>
<path opacity="0.4" d="M26.2202 49.2242L26.0002 49.8002C25.9782 49.8442 26.0302 49.8902 26.1042 49.8902H32.7202C32.7782 49.8902 32.8262 49.8622 32.8302 49.8262L32.8862 49.2542C32.8862 49.2162 32.8402 49.1822 32.7782 49.1822H26.3242C26.3048 49.1803 26.2852 49.1832 26.2671 49.1905C26.249 49.1978 26.2329 49.2094 26.2202 49.2242Z" fill="white"/>
<path d="M27.2624 49.946H27.0884C27.0544 49.946 27.0284 49.928 27.0304 49.906L27.1124 49.164C27.1124 49.144 27.1444 49.126 27.1784 49.126H27.3524C27.3864 49.126 27.4124 49.144 27.4104 49.164L27.3284 49.906C27.3264 49.928 27.2964 49.946 27.2624 49.946Z" fill="#407BFF"/>
<path d="M31.3424 49.946H31.1704C31.1364 49.946 31.1104 49.928 31.1124 49.906L31.1924 49.164C31.1924 49.144 31.2264 49.126 31.2604 49.126H31.4324C31.4664 49.126 31.4944 49.144 31.4904 49.164L31.4104 49.906C31.4004 49.928 31.3784 49.946 31.3424 49.946Z" fill="#407BFF"/>
<g style="mix-blend-mode:multiply">
<path d="M27.11 83.816C30.0691 83.816 32.468 83.6423 32.468 83.428C32.468 83.2138 30.0691 83.04 27.11 83.04C24.1508 83.04 21.752 83.2138 21.752 83.428C21.752 83.6423 24.1508 83.816 27.11 83.816Z" fill="#F5F5F5"/>
</g>
<path d="M30.3744 82.8805C29.4264 82.6045 28.3744 82.2505 27.7384 81.8805C27.7204 81.8685 27.7004 81.8625 27.6824 81.8525V77.5605H29.6004C29.746 77.5519 29.8828 77.488 29.9828 77.3818C30.0829 77.2757 30.1386 77.1353 30.1386 76.9895C30.1386 76.8436 30.0829 76.7033 29.9828 76.5972C29.8828 76.491 29.746 76.4271 29.6004 76.4185H27.6924V56.8545H26.5404V76.4185H24.6344C24.5565 76.4139 24.4786 76.4252 24.4053 76.4518C24.332 76.4785 24.265 76.5198 24.2082 76.5732C24.1515 76.6267 24.1063 76.6912 24.0754 76.7628C24.0445 76.8344 24.0286 76.9115 24.0286 76.9895C24.0286 77.0675 24.0445 77.1446 24.0754 77.2162C24.1063 77.2878 24.1515 77.3523 24.2082 77.4057C24.265 77.4592 24.332 77.5005 24.4053 77.5271C24.4786 77.5538 24.5565 77.5651 24.6344 77.5605H26.5404V81.8465C26.5224 81.8465 26.5044 81.8625 26.4864 81.8745C25.8404 82.2505 24.7964 82.6045 23.8484 82.8745C23.7843 82.8939 23.7293 82.9355 23.6934 82.9919C23.6574 83.0483 23.6428 83.1157 23.6522 83.182C23.6616 83.2482 23.6945 83.3089 23.7448 83.353C23.7951 83.3971 23.8595 83.4218 23.9264 83.4225H30.2964C30.3603 83.4181 30.4208 83.392 30.4678 83.3484C30.5148 83.3048 30.5454 83.2464 30.5545 83.183C30.5636 83.1196 30.5507 83.055 30.5179 82.9999C30.4852 82.9449 30.4345 82.9027 30.3744 82.8805Z" fill="#E0E0E0"/>
<path d="M30.6675 54.8623H23.5555C22.9834 54.8623 22.5195 55.3261 22.5195 55.8983V58.0123C22.5195 58.5845 22.9834 59.0483 23.5555 59.0483H30.6675C31.2397 59.0483 31.7035 58.5845 31.7035 58.0123V55.8983C31.7035 55.3261 31.2397 54.8623 30.6675 54.8623Z" fill="#407BFF"/>
<path d="M23.4902 59.0498V59.4138C23.4902 59.7138 23.8162 59.9578 24.2162 59.9578H30.0162C30.4162 59.9578 30.7422 59.7138 30.7422 59.4138V59.0498H23.4902Z" fill="#407BFF"/>
<path opacity="0.3" d="M23.4902 59.0498V59.4138C23.4902 59.7138 23.8162 59.9578 24.2162 59.9578H30.0162C30.4162 59.9578 30.7422 59.7138 30.7422 59.4138V59.0498H23.4902Z" fill="white"/>
</svg>
